<svg width="12" height="12" viewBox="0 0 12 12" fill="none" xmlns="http://www.w3.org/2000/svg">
<path d="M6.74999 0.750061C6.74999 0.335847 6.4142 6.10352e-05 5.99999 6.10352e-05C5.58578 6.10352e-05 5.24999 0.335847 5.24999 0.750061V5.25003H0.75C0.335786 5.25003 0 5.58581 0 6.00003C0 6.41424 0.335786 6.75003 0.75 6.75003H5.24999L5.25 11.25C5.25 11.6642 5.58579 12 6 12C6.41421 12 6.75 11.6642 6.75 11.25L6.74999 6.75003H11.25C11.6642 6.75003 12 6.41424 12 6.00003C12 5.58581 11.6642 5.25003 11.25 5.25003H6.74999V0.750061Z" fill="white"/>
</svg>
