<svg width="18" height="18" viewBox="0 0 18 18" fill="none" xmlns="http://www.w3.org/2000/svg">
<path d="M12.9071 8.18239V4.87104H13.7972V1.44609H9.41841V0H4.37879V1.44609H0V4.87104H0.890142V16.4778H8.07906C9.12845 17.4153 10.6055 18 12.2394 18C15.4158 18 18 15.7905 18 13.0745C18 10.5517 15.7701 8.46624 12.9071 8.18239ZM11.5718 8.18239C10.7684 8.26204 10.0149 8.48344 9.34649 8.81673V4.87104H11.5718V8.18239ZM5.714 1.14165H8.0832V1.44609H5.714V1.14165ZM1.33521 2.58774H12.462V3.72939H1.33521V2.58774ZM2.22535 4.87104H4.45071V15.3362H2.22535V4.87104ZM5.78592 15.3362V4.87104H8.01128V9.73324C7.06078 10.6119 6.47894 11.7862 6.47894 13.0745C6.47894 13.8893 6.71176 14.6585 7.12318 15.3362H5.78592ZM12.2394 16.8584C9.7993 16.8584 7.81415 15.1609 7.81415 13.0745C7.81415 10.9881 9.79935 9.29078 12.2394 9.29078C14.6796 9.29078 16.6648 10.9882 16.6648 13.0745C16.6648 15.1609 14.6796 16.8584 12.2394 16.8584Z" fill="white"/>
<path d="M13.7064 11.0129L12.2393 12.2673L10.7723 11.0129L9.82812 11.8201L11.2952 13.0745L9.82812 14.3289L10.7723 15.1362L12.2393 13.8818L13.7064 15.1362L14.6505 14.3289L13.1834 13.0745L14.6505 11.8201L13.7064 11.0129Z" fill="white"/>
</svg>
