<svg width="64" height="64" viewBox="0 0 64 64" fill="none" xmlns="http://www.w3.org/2000/svg">
<rect width="64" height="64" fill="#007FC3"/>
<path d="M32 8C24.282 8 18 14.28 18 22V41C18 42.654 16.654 44 15 44C13.346 44 12 42.654 12 41V32H2V41C2 48.168 7.832 54 15 54C22.168 54 28 48.168 28 41V22C28 19.794 29.794 18 32 18C34.206 18 36 19.794 36 22V25.8438L39.7773 27.6016L46 25.7539V22C46 14.28 39.718 8 32 8ZM52 32V41C52 42.654 50.654 44 49 44C47.346 44 46 42.654 46 41V32.0117L39.3047 34.0039L36 32.4609V41C36 48.168 41.832 54 49 54C56.168 54 62 48.168 62 41V32H52Z" fill="#F8EDE8"/>
</svg>
