<svg width="38" height="38" viewBox="0 0 38 38" fill="none" xmlns="http://www.w3.org/2000/svg">
<g clip-path="url(#clip0_33_114)">
<rect width="38" height="38" rx="5" fill="#822450" fill-opacity="0.2"/>
<path d="M14.3755 20.1597C13.499 20.1597 12.7858 20.8729 12.7858 21.7495C12.7858 22.6261 13.499 23.3393 14.3755 23.3393C15.2522 23.3393 15.9654 22.6261 15.9654 21.7495C15.9654 20.8729 15.2523 20.1597 14.3755 20.1597Z" fill="#822450"/>
<path d="M23.6244 26.448C22.7479 26.448 22.0347 27.1612 22.0347 28.0379C22.0347 28.9144 22.7479 29.6276 23.6244 29.6276C24.5011 29.6276 25.2143 28.9144 25.2143 28.0379C25.2143 27.1612 24.5011 26.448 23.6244 26.448Z" fill="#822450"/>
<path d="M35.997 13.3242H32.8839C33.5343 14.8378 33.1014 16.6569 31.7257 17.6992C30.1139 18.92 27.8093 18.611 26.5814 16.9886L23.8065 13.3243H14.1933L11.4185 16.9886C10.1973 18.6016 7.89447 18.9265 6.27415 17.6992C4.89834 16.6569 4.46555 14.8376 5.116 13.3242H2.00303C0.896823 13.3242 0 14.221 0 15.3272C0 16.4334 0.896823 17.3302 2.00303 17.3302H2.50258L6.0828 31.6853C6.47472 33.4621 8.04937 34.7271 9.86892 34.7271H28.1313C29.9508 34.7271 31.5255 33.4619 31.9173 31.6853L35.4975 17.3302H35.9971C37.1033 17.3302 38.0001 16.4334 38.0001 15.3272C38 14.221 37.1032 13.3242 35.997 13.3242ZM10.7827 21.7494C10.7827 19.7683 12.3943 18.1567 14.3755 18.1567C16.3566 18.1567 17.9684 19.7683 17.9684 21.7494C17.9684 23.7306 16.3566 25.3423 14.3755 25.3423C12.3943 25.3423 10.7827 23.7306 10.7827 21.7494ZM15.0745 32.5735C14.5815 32.3229 14.3851 31.7198 14.6357 31.2268L21.5371 17.6528C21.7829 17.169 22.3836 16.9599 22.8838 17.214C23.3743 17.4638 23.5742 18.0659 23.3226 18.5607L16.4212 32.1347C16.1711 32.6264 15.5691 32.8248 15.0745 32.5735ZM23.6244 31.6306C21.6433 31.6306 20.0316 30.019 20.0316 28.0379C20.0316 26.0567 21.6433 24.445 23.6244 24.445C25.6055 24.445 27.2173 26.0567 27.2173 28.0379C27.2173 30.019 25.6055 31.6306 23.6244 31.6306Z" fill="#822450"/>
<path d="M7.28168 16.3686C8.16382 17.0367 9.42012 16.8627 10.0878 15.9811L17.4851 6.21258C18.1529 5.33071 17.9795 4.07428 17.0976 3.40647C16.2156 2.73839 14.959 2.91239 14.2915 3.79399L6.89416 13.5625C6.22635 14.4445 6.39982 15.7008 7.28168 16.3686Z" fill="#822450"/>
<path d="M27.9121 15.981C28.58 16.8629 29.8363 17.0365 30.7182 16.3685C31.6 15.7007 31.7735 14.4444 31.1057 13.5624L23.7084 3.7939C23.0406 2.91217 21.7844 2.73831 20.9023 3.40638C20.0203 4.07419 19.8469 5.33049 20.5147 6.21249L27.9121 15.981Z" fill="#822450"/>
</g>
<defs>
<clipPath id="clip0_33_114">
<rect width="38" height="38" rx="5" fill="white"/>
</clipPath>
</defs>
</svg>
